{"title":"Digital Sin_Beautiful Sinners_Dvd+Bonus","uid":10362024,"size":2131197181,"categoryP":"porn","categoryS":"movies","magnet":"?xt=urn:btih:bd9e470da83ba64389760adb2b1b5e797a856f8c&amp;dn=Digital+Sin_Beautiful+Sinners_Dvd%2BBonus&amp;tr=udp%3A%2F%2Ftracker.openbittorrent.com%3A80&amp;tr=udp%3A%2F%2Fopen.demonii.com%3A1337&amp;tr=udp%3A%2F%2Ftracker.coppersurfer.tk%3A6969&amp;tr=udp%3A%2F%2Fexodus.desync.com%3A6969","seeders":0,"leechers":0,"uploader":"NETBOX68","files":1,"time":1402820884,"description":"Digital Sin_Beautiful Sinners_Dvd+Bonus\n**************************************************************\nin\n----------------------------\n &lt;a href=&quot;\nhttp://bayimg.com/iaOplAAFL&quot; rel=&quot;nofollow&quot; target=&quot;_NEW&quot;&gt;\nhttp://bayimg.com/iaOplAAFL&lt;/a&gt;\n\n********************************************************\nDigital Sin_Beautiful Sinners_Dvd\n-----------------------------------------------------------------------\n &lt;a href=&quot;\nhttp://bayimg.com/iaoPmAaFl&quot; rel=&quot;nofollow&quot; target=&quot;_NEW&quot;&gt;\nhttp://bayimg.com/iaoPmAaFl&lt;/a&gt;\n\n********************************************************\nDigital Sin_Beautiful Sinners_Sample\n---------------------------------------------------------------------\n &lt;a href=&quot;\nhttp://bayimg.com/IAoPNaAFl&quot; rel=&quot;nofollow&quot; target=&quot;_NEW&quot;&gt;\nhttp://bayimg.com/IAoPNaAFl&lt;/a&gt;\n\n**************************************************************\nDigital Sin_Beautiful Sinners_Dvd+Bonus\n------------------------------------------------------------------------\ndvd,Bonus(covers,Featuring,\nPhoto Gallery,pictures,sample.\n***************************************************************\nDigital Sin_Beautiful Sinners_Dvd\n----------------------------------------------------------------------------\nmin - 01 47 ' 29 ''\ngb - 1.94\n1280 *720\n*************************************************************\nDigital Sin_Beautiful Sinners_Sample\n------------------------------------------------------------------------\nmin - 01 ' 08 ''\nmb - 20.4\n1280*720\n*************************************************************\nGeneral\nComplete name                    : C:ETOIMAxxxDVDDigital Sin_Beautiful Sinners_Dvd+BonusdvdDigital Sin_Beautiful Sinners_Dvd.avi\nFormat                           : AVI\nFormat/Info                      : Audio Video Interleave\nFormat profile                   : OpenDML\nFile size                        : 1.95 GiB\nDuration                         : 1h 47mn\nOverall bit rate                 : 2 593 Kbps\nWriting application              : MEncoder SVN-r30881(20100311-gcc4.3.3)\nWriting library                  : MPlayer\n\nVideo\nID                               : 0\nFormat                           : MPEG-4 Visual\nFormat profile                   : Advanced Simple@L5\nFormat settings, BVOP            : 2\nFormat settings, QPel            : No\nFormat settings, GMC             : No warppoints\nFormat settings, Matrix          : Default (H.263)\nCodec ID                         : XVID\nCodec ID/Hint                    : XviD\nDuration                         : 1h 47mn\nBit rate                         : 2 388 Kbps\nWidth                            : 1 280 pixels\nHeight                           : 720 pixels\nDisplay aspect ratio             : 16:9\nFrame rate                       : 25.000 fps\nColor space                      : YUV\nChroma subsampling               : 4:2:0\nBit depth                        : 8 bits\nScan type                        : Progressive\nCompression mode                 : Lossy\nBits/(Pixel*Frame)               : 0.104\nStream size                      : 1.79 GiB (92%)\nWriting library                  : XviD 1.2.1 (UTC 2008-12-04)\n\nAudio\nID                               : 1\nFormat                           : MPEG Audio\nFormat version                   : Version 1\nFormat profile                   : Layer 3\nMode                             : Joint stereo\nMode extension                   : MS Stereo\nCodec ID                         : 55\nCodec ID/Hint                    : MP3\nDuration                         : 1h 47mn\nBit rate mode                    : Constant\nBit rate                         : 192 Kbps\nChannel(s)                       : 2 channels\nSampling rate                    : 48.0 KHz\nCompression mode                 : Lossy\nStream size                      : 1.42 MiB (0%)\nAlignment                        : Aligned on interleaves\nInterleave, duration             : 2491 ms (62.28 video frames)\nInterleave, preload duration     : 504 ms\nWriting library                  : LAME3.98\n\n\n----------------------------------------------------------------------------------------------------------","torrent":{"xt":"urn:btih:bd9e470da83ba64389760adb2b1b5e797a856f8c","amp;dn":"Digital+Sin_Beautiful+Sinners_Dvd%2BBonus","amp;tr":["udp%3A%2F%2Ftracker.openbittorrent.com%3A80","udp%3A%2F%2Fopen.demonii.com%3A1337","udp%3A%2F%2Ftracker.coppersurfer.tk%3A6969","udp%3A%2F%2Fexodus.desync.com%3A6969"],"infoHash":"bd9e470da83ba64389760adb2b1b5e797a856f8c","infoHashBuffer":{"type":"Buffer","data":[189,158,71,13,168,59,166,67,137,118,10,219,43,27,94,121,122,133,111,140]},"announce":[],"urlList":[]}}